<?xml version="1.0" encoding="UTF-8"?>
<svg width="16px" height="16px" viewBox="0 0 16 16" version="1.1" xmlns="http://www.w3.org/2000/svg" xmlns:xlink="http://www.w3.org/1999/xlink">
    <!-- Generator: Sketch 61.2 (89653) - https://sketch.com -->
    <title>icon/人才管理</title>
    <desc>Created with Sketch.</desc>
    <g id="icon/人才管理" stroke="none" stroke-width="1" fill="none" fill-rule="evenodd" fill-opacity="0.85">
        <path d="M8.11706606,1 C9.48963731,1 10.544851,1.40909091 11.2509715,2.22727273 C12.2830733,3.41653104 12.2045438,5.05347088 12.1332734,5.63582238 L12.1237047,5.70855615 C11.9888277,6.71122995 11.568329,7.64171123 10.9653497,8.30748664 L13.8850389,10.8983957 C14.1151231,11.0989305 14.25,11.3957219 14.25,11.7085562 L14.25,13.9144385 C14.25,14.5187166 13.7660298,15 13.1789184,15 L3.07108161,15 C2.48397021,15 2,14.5187166 2,13.9251337 L2,11.7165775 C2,11.4117647 2.13487694,11.1149733 2.3570272,10.9064171 L5.30845207,8.27540107 C4.60233161,7.44919787 4.2453044,6.31818182 4.1818329,5.69251337 C4.1183614,5.01871658 4.07075777,3.3342246 5.11803756,2.16310161 C5.80829016,1.39304813 6.81590026,1 8.11706606,1 Z M8.11706606,2 C7.08651446,2 6.35116696,2.2856037 5.86345822,2.82969597 C5.25406958,3.51114619 5.07805989,4.54389045 5.17672664,5.59158548 C5.23057726,6.12241636 5.52195892,6.89141386 5.9288868,7.44847832 L6.06864159,7.62569968 L6.70492092,8.37018459 L3.04147519,11.6354788 C3.02422796,11.6516706 3.01154362,11.6726746 3.00500375,11.6913066 L3,11.7165775 L3,13.9251337 C3,13.9550901 3.01963116,13.9822242 3.04471092,13.993919 L3.07108161,14 L13.1789184,14 C13.2061306,14 13.2325079,13.9802773 13.2439958,13.9491117 L13.25,13.9144385 L13.25,11.7085562 L13.2427074,11.6746818 L13.2213007,11.6463607 L9.54602452,8.38494965 L10.2241525,7.63619933 C10.6920858,7.11953402 11.0250077,6.37531152 11.1335404,5.56864629 C11.2633226,4.65015746 11.1140222,3.59515786 10.4939238,2.88063228 C9.99490608,2.30242048 9.22070443,2 8.11706606,2 Z M8.22000001,10 C8.44091846,10 8.62,10.1678883 8.62,10.3749986 L8.62,13 L7.62,13 L7.62,10.3749986 C7.62,10.1678883 7.79908154,10 8.02,10 L8.22000001,10 Z" id="形状结合" fill="#000000"></path>
    </g>
</svg>