<?xml version="1.0" encoding="UTF-8"?>
<svg width="16px" height="16px" viewBox="0 0 16 16" version="1.1" xmlns="http://www.w3.org/2000/svg" xmlns:xlink="http://www.w3.org/1999/xlink">
    <!-- Generator: Sketch 61.2 (89653) - https://sketch.com -->
    <title>icon/人才服务通知</title>
    <desc>Created with Sketch.</desc>
    <g id="icon/人才服务通知" stroke="none" stroke-width="1" fill="none" fill-rule="evenodd">
        <path d="M13.7881853,12.7505 L12.5531853,10.578 L12.5531853,6.198 C12.5531853,4.5195 11.2916853,2.703 9.45318535,2.038 C9.36318535,1.1485 8.76918535,0.5 7.98968535,0.5 C7.21218535,0.5 6.61568535,1.1485 6.52718535,2.038 C4.68918535,2.703 3.42818535,4.5195 3.42818535,6.198 L3.42818535,10.578 L2.13318535,12.857 C2.04802155,13.0071704 2.04900903,13.1912697 2.13577884,13.3405179 C2.22254866,13.4897661 2.38204716,13.5817103 2.55468535,13.582 L5.63668535,13.582 C5.86855797,14.6976556 6.85069052,15.4980508 7.99018535,15.5 C9.1297667,15.4985833 10.112049,14.6978959 10.3431853,13.582 L13.4481853,13.582 C13.6456306,13.582764 13.8237877,13.4636362 13.8985176,13.2808777 C13.9732475,13.0981193 13.9295986,12.8882951 13.7881853,12.7505 M7.99018535,1.4725 C8.16518535,1.4725 8.30668535,1.6055 8.39718535,1.8035 C8.26218535,1.79 8.13168535,1.7585 7.99018535,1.7585 C7.84918535,1.7585 7.71868535,1.79 7.58368535,1.8035 C7.67418535,1.6055 7.81518535,1.4725 7.99018535,1.4725 M7.99018535,14.5285 C7.37368535,14.5285 6.85868535,14.132 6.65818535,13.582 L9.32218535,13.582 C9.12218535,14.132 8.60768535,14.5285 7.99018535,14.5285 M3.38968535,12.6115 L4.33568535,10.9455 C4.3781221,10.8726255 4.40054586,10.7898301 4.40068535,10.7055 L4.40068535,6.198 C4.40068535,4.5605 5.93568535,2.73 7.99068535,2.73 C10.0451853,2.73 11.5816853,4.5605 11.5816853,6.198 L11.5816853,10.7055 C11.5816853,10.7895 11.6036853,10.874 11.6446853,10.9455 L12.5921853,12.6115 L3.38968535,12.6115 Z" id="形状" fill="#FFFFFF"></path>
    </g>
</svg>