<?xml version="1.0" encoding="UTF-8"?>
<svg width="16px" height="16px" viewBox="0 0 16 16" version="1.1" xmlns="http://www.w3.org/2000/svg" xmlns:xlink="http://www.w3.org/1999/xlink">
    <!-- Generator: Sketch 61.2 (89653) - https://sketch.com -->
    <title>icon/信息管理</title>
    <desc>Created with Sketch.</desc>
    <g id="icon/信息管理" stroke="none" stroke-width="1" fill="none" fill-rule="evenodd">
        <g id="编组-9">
            <rect id="矩形备份-3" stroke="#979797" fill="#D8D8D8" opacity="0" x="0.5" y="0.5" width="15" height="15"></rect>
            <g id="编组" transform="translate(1.000000, 1.000000)" fill="#000000" fill-rule="nonzero">
                <path d="M13.3728027,10.9375 C13.037213,10.9375 12.7651638,10.6654508 12.7651638,10.3298611 L12.7651638,1.21527777 L4.2582194,1.21527777 C3.92266604,1.2152264 3.65067353,0.943192253 3.65067353,0.607638887 C3.65067353,0.27208552 3.92266604,0 4.2582194,0 L12.7651638,0 C13.0874755,0 13.3965862,0.128037821 13.624495,0.355946614 C13.8524038,0.583855406 13.9804416,0.892966065 13.9804416,1.21527777 L13.9804416,10.3298611 C13.9804416,10.6654508 13.7083924,10.9375 13.3728027,10.9375 Z M11.5498861,3.64583333 L11.5498861,13.3680556 C11.5498861,14.0392349 11.0057877,14.5833333 10.3346083,14.5833333 L1.22002496,14.5833333 C0.897713254,14.5833333 0.588602593,14.4552955 0.360693798,14.2273867 C0.132785002,13.9994779 0.00474717407,13.6903673 0.00474717407,13.3680556 L0.00474717407,3.64583333 C0.00474717407,3.32352163 0.132785002,3.01441097 0.360693798,2.78650217 C0.588602593,2.55859338 0.897713254,2.43055556 1.22002496,2.43055556 L10.3346083,2.43055556 C11.0057877,2.43055556 11.5498861,2.97465395 11.5498861,3.64583333 Z M1.22002496,13.3680556 L10.3346083,13.3680556 L10.3346083,3.64583333 L1.22002496,3.64583333 L1.22002496,13.3680556 Z M8.51169163,9.11458333 L3.04294163,9.11458333 C2.70738827,9.11453196 2.43539576,8.84249781 2.43539576,8.50694445 C2.43539576,8.17139108 2.70738827,7.89935693 3.04294163,7.89930556 L8.51169163,7.89930556 C8.84724499,7.89935693 9.1192375,8.17139108 9.1192375,8.50694445 C9.1192375,8.84249781 8.84724499,9.11453196 8.51169163,9.11458333 Z M8.51169163,6.68402777 L3.04294163,6.68402777 C2.70738827,6.6839764 2.43539576,6.41194225 2.43539576,6.07638889 C2.43539576,5.74083552 2.70738827,5.46880137 3.04294163,5.46875 L8.51169163,5.46875 C8.84724499,5.46880137 9.1192375,5.74083552 9.1192375,6.07638889 C9.1192375,6.41194225 8.84724499,6.6839764 8.51169163,6.68402777 Z M3.04294163,10.3298611 L6.08113607,10.3298611 C6.41672576,10.3298611 6.68877496,10.6019103 6.68877496,10.9375 C6.68877496,11.2730897 6.41672576,11.5451389 6.08113607,11.5451389 L3.04294163,11.5451389 C2.70735193,11.5451389 2.43530273,11.2730897 2.43530273,10.9375 C2.43530273,10.6019103 2.70735193,10.3298611 3.04294163,10.3298611 Z" id="形状"></path>
            </g>
        </g>
    </g>
</svg>