<?xml version="1.0" encoding="UTF-8"?>
<svg width="16px" height="16px" viewBox="0 0 16 16" version="1.1" xmlns="http://www.w3.org/2000/svg" xmlns:xlink="http://www.w3.org/1999/xlink">
    <!-- Generator: Sketch 61.2 (89653) - https://sketch.com -->
    <title>icon/兑换业务管理</title>
    <desc>Created with Sketch.</desc>
    <defs>
        <rect id="path-1" x="0" y="0" width="14" height="6"></rect>
        <rect id="path-3" x="0" y="0" width="14" height="6"></rect>
    </defs>
    <g id="icon/兑换业务管理" stroke="none" stroke-width="1" fill="none" fill-rule="evenodd">
        <g id="编组-12">
            <rect id="矩形备份-4" stroke="#979797" fill="#D8D8D8" opacity="0" x="0.5" y="0.5" width="15" height="15"></rect>
            <g id="编组-10" transform="translate(1.000000, 1.000000)">
                <g id="椭圆形" transform="translate(0.000000, 8.000000)">
                    <mask id="mask-2" fill="white">
                        <use xlink:href="#path-1"></use>
                    </mask>
                    <use id="蒙版" fill="#D8D8D8" opacity="0" xlink:href="#path-1"></use>
                    <path d="M7,5.5 C10.2398387,5.5 12.9728065,3.11486198 13.4325334,-0.0595740023 C13.4773458,-0.369005349 13.5,-0.683001399 13.5,-1 C13.5,-1.31066326 13.4782422,-1.61844625 13.4351919,-1.92188052 C12.9835978,-5.10487831 10.2467538,-7.5 7,-7.5 C3.75596069,-7.5 1.02063658,-5.10879939 0.565845254,-1.92916097 C0.522107489,-1.62337176 0.5,-1.31314986 0.5,-1 C0.5,-0.682522228 0.522722789,-0.368056365 0.567669818,-0.0581718106 C1.0280101,3.11561622 3.76068416,5.5 7,5.5 Z" stroke="#000000" mask="url(#mask-2)"></path>
                </g>
                <g id="椭圆形备份" transform="translate(7.000000, 3.000000) scale(1, -1) translate(-7.000000, -3.000000) ">
                    <mask id="mask-4" fill="white">
                        <use xlink:href="#path-3"></use>
                    </mask>
                    <use id="蒙版" fill="#D8D8D8" opacity="0" xlink:href="#path-3"></use>
                    <path d="M7,5.5 C10.2398387,5.5 12.9728065,3.11486198 13.4325334,-0.0595740023 C13.4773458,-0.369005349 13.5,-0.683001399 13.5,-1 C13.5,-1.31066326 13.4782422,-1.61844625 13.4351919,-1.92188052 C12.9835978,-5.10487831 10.2467538,-7.5 7,-7.5 C3.75596069,-7.5 1.02063658,-5.10879939 0.565845254,-1.92916097 C0.522107489,-1.62337176 0.5,-1.31314986 0.5,-1 C0.5,-0.682522228 0.522722789,-0.368056365 0.567669818,-0.0581718106 C1.0280101,3.11561622 3.76068416,5.5 7,5.5 Z" id="椭圆形" stroke="#000000" mask="url(#mask-4)"></path>
                </g>
                <polygon id="矩形" fill="#000000" fill-rule="nonzero" points="13 5 13 6 6 6 6 5"></polygon>
                <path d="M11,8 L9.85749293,9.90417846 C9.57334477,10.3777587 8.95908451,10.5313238 8.48550424,10.2471756 C8.18429883,10.0664524 8,9.74094555 8,9.3896827 L8,9 L1,9 L1,8 L11,8 Z" id="形状结合" fill="#000000" fill-rule="nonzero"></path>
                <path d="M5.51449576,3.75282437 C5.81570117,3.93354762 6,4.25905445 6,4.6103173 L6,6 L3,6 L4.14250707,4.09582154 C4.42665523,3.62224128 5.04091549,3.46867621 5.51449576,3.75282437 Z" id="矩形" fill="#000000" fill-rule="nonzero"></path>
            </g>
        </g>
    </g>
</svg>