<?xml version="1.0" encoding="UTF-8"?>
<svg width="16px" height="16px" viewBox="0 0 16 16" version="1.1" xmlns="http://www.w3.org/2000/svg" xmlns:xlink="http://www.w3.org/1999/xlink">
    <!-- Generator: Sketch 61.2 (89653) - https://sketch.com -->
    <title>icon/反馈列表</title>
    <desc>Created with Sketch.</desc>
    <g id="icon/反馈列表" stroke="none" stroke-width="1" fill="none" fill-rule="evenodd">
        <path d="M8,0.5 C12.1417411,0.5 15.5,3.85825893 15.5,8 C15.5,12.1417411 12.1417411,15.5 8,15.5 C3.85825893,15.5 0.5,12.1417411 0.5,8 C0.5,3.85825893 3.85825893,0.5 8,0.5 Z M8,1.5 C4.41054368,1.5 1.5,4.41054368 1.5,8 C1.5,11.5894563 4.41054368,14.5 8,14.5 C11.5894563,14.5 14.5,11.5894563 14.5,8 C14.5,4.41054368 11.5894563,1.5 8,1.5 Z M8,10.8125 C8.34517797,10.8125 8.625,11.092322 8.625,11.4375 C8.625,11.782678 8.34517797,12.0625 8,12.0625 C7.65482203,12.0625 7.375,11.782678 7.375,11.4375 C7.375,11.092322 7.65482203,10.8125 8,10.8125 Z M8,4.3125 C8.65625,4.3125 9.275,4.5375 9.74375,4.9484375 C10.23125,5.375 10.5,5.9484375 10.4984443,6.5625 C10.4984443,7.465625 9.903125,8.278125 8.98125,8.6328125 C8.6921875,8.74375 8.4984375,9.025 8.4984375,9.3328125 L8.4984375,9.3328125 L8.4984375,9.6875 C8.4984375,9.75625 8.4421875,9.8125 8.3734375,9.8125 L8.3734375,9.8125 L7.6234375,9.8125 C7.5546875,9.8125 7.4984375,9.75625 7.4984375,9.6875 L7.4984375,9.6875 L7.4984375,9.3515625 C7.4984375,8.990625 7.6046875,8.634375 7.809375,8.3375 C8.0109375,8.046875 8.2921875,7.825 8.6234375,7.6984375 C9.15625,7.49375 9.5,7.0484375 9.5,6.5625 C9.5,5.8734375 8.8265625,5.3125 8,5.3125 C7.1734375,5.3125 6.5,5.8734375 6.5,6.5625 L6.5,6.5625 L6.5,6.68125 C6.5,6.75 6.44375,6.80625 6.375,6.80625 L6.375,6.80625 L5.625,6.80625 C5.55625,6.80625 5.5,6.75 5.5,6.68125 L5.5,6.68125 L5.5,6.5625 C5.5,5.9484375 5.76875,5.375 6.25625,4.9484375 C6.725,4.5390625 7.34375,4.3125 8,4.3125 Z" id="形状结合" fill="#000000"></path>
    </g>
</svg>