<?xml version="1.0" encoding="UTF-8"?>
<svg width="16px" height="16px" viewBox="0 0 16 16" version="1.1" xmlns="http://www.w3.org/2000/svg" xmlns:xlink="http://www.w3.org/1999/xlink">
    <!-- Generator: Sketch 61.2 (89653) - https://sketch.com -->
    <title>icon/基础数据管理</title>
    <desc>Created with Sketch.</desc>
    <g id="icon/基础数据管理" stroke="none" stroke-width="1" fill="none" fill-rule="evenodd">
        <g id="编组-11">
            <rect id="矩形备份" stroke="#979797" fill="#D8D8D8" opacity="0" x="0.5" y="0.5" width="15" height="15"></rect>
            <g id="编组-7" transform="translate(0.500000, 0.500000)" fill="#000000" fill-rule="nonzero">
                <path d="M9.03085004,1.24344979e-14 C12.3275205,1.24344979e-14 15,2.67247947 15,5.96914996 C15,6.22288143 14.79431,6.42857143 14.5405785,6.42857143 L9.57142857,6.42857143 C9.01914382,6.42857143 8.57142857,5.98085618 8.57142857,5.42857143 L8.57142857,0.459421469 C8.57142857,0.205689998 8.77711857,1.24811076e-14 9.03085004,1.24344979e-14 Z M9.48943922,0.938817785 L9.48943922,5.51056078 L14.0611822,5.51056078 C13.8399143,3.08320443 11.9167956,1.16008575 9.48943922,0.938817785 Z" id="形状结合"></path>
                <path d="M6.96428571,0.535714286 C7.26015254,0.535714286 7.5,0.775561741 7.5,1.07142857 C7.5,1.3672954 7.26015254,1.60714286 6.96428571,1.60714286 C3.70975058,1.60714286 1.07142857,4.24546487 1.07142857,7.5 C1.07142857,10.7545351 3.70975058,13.3928571 6.96428571,13.3928571 C10.2188208,13.3928571 12.8571429,10.7545351 12.8571429,7.5 C12.8571429,7.20413317 13.0969903,6.96428571 13.3928571,6.96428571 C13.688724,6.96428571 13.9285714,7.20413317 13.9285714,7.5 C13.9285714,11.3462688 10.8105545,14.4642857 6.96428571,14.4642857 C3.11801692,14.4642857 0,11.3462688 0,7.5 C0,3.65373121 3.11801692,0.535714286 6.96428571,0.535714286 Z" id="路径"></path>
            </g>
        </g>
    </g>
</svg>