<?xml version="1.0" encoding="UTF-8"?>
<svg width="16px" height="16px" viewBox="0 0 16 16" version="1.1" xmlns="http://www.w3.org/2000/svg" xmlns:xlink="http://www.w3.org/1999/xlink">
    <!-- Generator: Sketch 61.2 (89653) - https://sketch.com -->
    <title>icon/政策咨询管理</title>
    <desc>Created with Sketch.</desc>
    <g id="icon/政策咨询管理" stroke="none" stroke-width="1" fill="none" fill-rule="evenodd" fill-opacity="0.85">
        <path d="M14,1 C14.5522847,1 15,1.44771525 15,2 L15,3.5 C15,3.77614237 14.7761424,4 14.5,4 C14.2545401,4 14.0503916,3.82312484 14.0080557,3.58987563 L14,3.5 L14,2 L2,2 L2,14 L14,14 L14,6.5 L14.0080557,6.41012437 C14.0503916,6.17687516 14.2545401,6 14.5,6 C14.7454599,6 14.9496084,6.17687516 14.9919443,6.41012437 L15,6.5 L15,14 C15,14.5522847 14.5522847,15 14,15 L2,15 C1.44771525,15 1,14.5522847 1,14 L1,2 C1,1.44771525 1.44771525,1 2,1 L14,1 Z M8.5,11 C8.77614237,11 9,11.2238576 9,11.5 C9,11.7761424 8.77614237,12 8.5,12 L4.5,12 C4.22385763,12 4,11.7761424 4,11.5 C4,11.2238576 4.22385763,11 4.5,11 L8.5,11 Z M11.5,9 C11.7761424,9 12,9.22385763 12,9.5 C12,9.77614237 11.7761424,10 11.5,10 L4.5,10 C4.22385763,10 4,9.77614237 4,9.5 C4,9.22385763 4.22385763,9 4.5,9 L11.5,9 Z M7.5,4 C7.77614237,4 8,4.22385763 8,4.5 C8,4.77614237 7.77614237,5 7.5,5 L6.5,5 L6.5,7.5 C6.5,7.77614237 6.27614237,8 6,8 C5.72385763,8 5.5,7.77614237 5.5,7.5 L5.5,5 L4.5,5 C4.22385763,5 4,4.77614237 4,4.5 C4,4.22385763 4.22385763,4 4.5,4 L7.5,4 Z M11.5,7 C11.7761424,7 12,7.22385763 12,7.5 C12,7.77614237 11.7761424,8 11.5,8 L8.5,8 C8.22385763,8 8,7.77614237 8,7.5 C8,7.22385763 8.22385763,7 8.5,7 L11.5,7 Z" id="形状结合" fill="#000000"></path>
    </g>
</svg>