<?xml version="1.0" encoding="UTF-8"?>
<svg width="16px" height="16px" viewBox="0 0 16 16" version="1.1" xmlns="http://www.w3.org/2000/svg" xmlns:xlink="http://www.w3.org/1999/xlink">
    <!-- Generator: Sketch 61.2 (89653) - https://sketch.com -->
    <title>icon/智能匹配管理</title>
    <desc>Created with Sketch.</desc>
    <g id="icon/智能匹配管理" stroke="none" stroke-width="1" fill="none" fill-rule="evenodd">
        <path d="M8,0.5 C12.1421932,0.5 15.5,3.85780678 15.5,8 C15.5,12.1421932 12.1421932,15.5 8,15.5 C3.85780678,15.5 0.5,12.1421932 0.5,8 C0.5,3.85780678 3.85780678,0.5 8,0.5 Z M4.02741871,8.47083562 L4.03104114,8.50075535 L4.03104114,8.50075535 L1.51896972,8.50033932 C1.76189265,11.6916534 4.30921448,14.2386664 7.50066352,14.4811065 L7.50024088,11.9690832 L7.55514941,11.9755423 C5.71009418,11.7713915 4.24334423,10.3123162 4.02741871,8.47083562 Z M8.47083562,11.9725813 L8.50075535,11.9689589 L8.50075535,11.9689589 L8.50033932,14.4810303 C11.6913191,14.2381328 14.2381328,11.6913191 14.4810303,8.50033932 L11.9689589,8.50075535 L11.9725813,8.47083562 C11.7576704,10.3036629 10.3036629,11.7576704 8.47083562,11.9725813 Z M8,5 C6.34314575,5 5,6.34314575 5,8 C5,9.65685425 6.34314575,11 8,11 C9.65685425,11 11,9.65685425 11,8 C11,6.34314575 9.65685425,5 8,5 Z M8,7 C8.55228475,7 9,7.44771525 9,8 C9,8.55228475 8.55228475,9 8,9 C7.44771525,9 7,8.55228475 7,8 C7,7.44771525 7.44771525,7 8,7 Z M1.51889346,7.50066352 L4.03091685,7.50024088 L4.02672067,7.53515645 C4.24016358,5.69084972 5.7080934,4.2288299 7.55514941,4.02445771 L7.50024088,4.03091685 L7.50024088,4.03091685 L7.50066352,1.51889346 C4.30888019,1.76135901 1.76135901,4.30888019 1.51889346,7.50066352 Z M8.50033932,1.51896972 L8.50075535,4.03104114 L8.47083562,4.02741871 C10.3056598,4.24256373 11.7608383,5.69950688 11.9732793,7.53515645 L11.9690832,7.50024088 L11.9690832,7.50024088 L14.4811065,7.50066352 C14.2386664,4.30921448 11.6916534,1.76189265 8.50033932,1.51896972 Z" id="形状结合" fill="#000000"></path>
    </g>
</svg>