<?xml version="1.0" encoding="UTF-8"?>
<svg width="16px" height="16px" viewBox="0 0 16 16" version="1.1" xmlns="http://www.w3.org/2000/svg" xmlns:xlink="http://www.w3.org/1999/xlink">
    <!-- Generator: Sketch 61.2 (89653) - https://sketch.com -->
    <title>icon/活动管理</title>
    <desc>Created with Sketch.</desc>
    <g id="icon/活动管理" stroke="none" stroke-width="1" fill="none" fill-rule="evenodd">
        <path d="M8.34907217,0.0644415949 C8.4580175,0.138468549 8.51818714,0.263045881 8.51191079,0.390965597 L8.50003011,0.467740848 L8.49110186,0.503986778 C8.38035654,0.954626635 7.32832002,5.40656722 9.46547946,7.24452434 L9.57980488,7.00049119 C10.0687489,5.99632581 11.1403663,4.27079123 12.7830467,4.19534453 C12.9184102,4.18840692 13.0468719,4.25549248 13.1185311,4.3705419 C13.1718008,4.46280787 13.1824548,4.57220215 13.1504929,4.67131944 L13.1185311,4.74330227 C13.1073483,4.75821268 12.197813,6.40581351 12.6898566,7.67692636 C12.973805,8.31607896 13.5360896,8.78900294 14.2144465,8.95922203 L14.2509875,8.97777431 L14.285271,9.00022567 C14.3035685,9.00993895 14.3210244,9.02116061 14.3374575,9.0337741 C14.3672085,9.07052034 14.3945993,9.10911637 14.4194647,9.14932982 L14.4213332,9.25370272 L14.4194647,9.29097876 C14.4190641,12.0823454 12.6905168,14.5818835 10.0789517,15.5675081 C7.46738658,16.5531327 4.51840127,15.818931 2.67382637,13.7238722 C0.829251471,11.6288134 0.47444811,8.61058854 1.78288828,6.14488125 L1.81270911,6.10760521 C1.87969858,6.00312782 1.99429286,5.93884322 2.11837261,5.93613545 C2.32424247,5.93613545 2.49113297,6.10302595 2.49113297,6.30889581 C2.47866667,6.65377799 2.61433366,6.98751878 2.86389334,7.22588632 C3.22337957,7.54259918 3.67051145,7.74276868 4.14618901,7.79993728 C3.53858961,6.27161978 3.9337156,4.51591844 5.30920136,2.68193743 C6.0594135,1.70029837 6.93688486,0.822827 7.91852393,0.0726148585 C8.04579267,-0.0211152596 8.21833777,-0.0243907499 8.34907217,0.0644415949 Z M7.216,2.015 L6.93717455,2.3042489 C6.64474947,2.61655589 6.36828557,2.94295573 6.10920136,3.28193743 C4.98719248,4.77794927 4.64402384,6.11914639 5.0115231,7.25317363 L5.07544519,7.43050129 L5.69683048,8.99349497 L4.02686417,8.79279255 C3.42540874,8.72050753 2.85603658,8.48749986 2.35696839,8.10109894 L2.162,7.938 L2.14396365,8.01489632 C1.75874153,9.69644323 2.15186425,11.4910987 3.26105547,12.8690932 L3.42437585,13.0630579 C4.99403852,14.8458729 7.50351221,15.4706504 9.7258542,14.6319216 C11.7182987,13.8799578 13.1067527,12.0924662 13.3765548,9.94692582 L13.399,9.727 L13.2294407,9.64298487 C12.6479248,9.33181915 12.1661575,8.84490616 11.8478224,8.22713325 L11.7572885,8.03792047 C11.5156086,7.41358054 11.5019334,6.68461623 11.6116142,6.0101017 L11.66,5.75 L11.5553981,5.84887269 C11.1561936,6.24383486 10.7898264,6.79445373 10.4788932,7.43739415 L10.377333,7.65504006 L9.82800288,8.87523345 L8.81344019,8.00270953 C7.81944442,7.14787317 7.31552649,5.8797667 7.17518401,4.3402561 C7.1084747,3.60847703 7.12652983,2.8513793 7.20678908,2.09562357 L7.216,2.015 Z M3.81134619,10.1768482 C4.45091222,11.5967866 5.07493893,12.298312 5.61353147,12.3682234 L5.70249385,12.3740419 C5.97863622,12.3740419 6.20249385,12.5978996 6.20249385,12.8740419 C6.20249385,13.1501843 5.97863622,13.3740419 5.70249385,13.3740419 C4.62787874,13.3740419 3.72097098,12.4111766 2.89956742,10.5875299 C2.78616079,10.3357492 2.89833519,10.0397063 3.15011594,9.92629969 C3.4018967,9.81289306 3.69793956,9.92506746 3.81134619,10.1768482 Z" id="形状结合" fill="#000000"></path>
    </g>
</svg>