<?xml version="1.0" encoding="UTF-8"?>
<svg width="16px" height="16px" viewBox="0 0 16 16" version="1.1" xmlns="http://www.w3.org/2000/svg" xmlns:xlink="http://www.w3.org/1999/xlink">
    <!-- Generator: Sketch 61.2 (89653) - https://sketch.com -->
    <title>icon/涉黑涉恶管理</title>
    <desc>Created with Sketch.</desc>
    <g id="icon/涉黑涉恶管理" stroke="none" stroke-width="1" fill="none" fill-rule="evenodd">
        <path d="M8,0.5 C12.1421932,0.5 15.5,3.85780678 15.5,8 C15.5,12.1421932 12.1421932,15.5 8,15.5 C3.85780678,15.5 0.5,12.1421932 0.5,8 C0.5,3.85780678 3.85780678,0.5 8,0.5 Z M8,1.5 C4.41009153,1.5 1.5,4.41009153 1.5,8 C1.5,11.5899085 4.41009153,14.5 8,14.5 C11.5899085,14.5 14.5,11.5899085 14.5,8 C14.5,4.41009153 11.5899085,1.5 8,1.5 Z M8,10.5 C8.55228475,10.5 9,10.9477153 9,11.5 C9,12.0522847 8.55228475,12.5 8,12.5 C7.44771525,12.5 7,12.0522847 7,11.5 C7,10.9477153 7.44771525,10.5 8,10.5 Z M8,3 C8.41421356,3 8.75,3.33578644 8.75,3.75 L8.75,8.75 C8.75,9.16421356 8.41421356,9.5 8,9.5 C7.58578644,9.5 7.25,9.16421356 7.25,8.75 L7.25,3.75 C7.25,3.33578644 7.58578644,3 8,3 Z" id="形状结合" fill="#000000"></path>
    </g>
</svg>