<?xml version="1.0" encoding="UTF-8"?>
<svg width="16px" height="16px" viewBox="0 0 16 16" version="1.1" xmlns="http://www.w3.org/2000/svg" xmlns:xlink="http://www.w3.org/1999/xlink">
    <!-- Generator: Sketch 61.2 (89653) - https://sketch.com -->
    <title>icon/申报项目管理</title>
    <desc>Created with Sketch.</desc>
    <g id="icon/申报项目管理" stroke="none" stroke-width="1" fill="none" fill-rule="evenodd">
        <path d="M4.5,1 L4.5,2 C4.5,2.51283584 4.88604019,2.93550716 5.38337887,2.99327227 L5.5,3 L10.5,3 C11.0128358,3 11.4355072,2.61395981 11.4932723,2.11662113 L11.5,2 L11.5,1 L13.5,1 C14.0522847,1 14.5,1.44771525 14.5,2 L14.5,14 C14.5,14.5522847 14.0522847,15 13.5,15 L2.5,15 C1.94771525,15 1.5,14.5522847 1.5,14 L1.5,2 C1.5,1.44771525 1.94771525,1 2.5,1 L4.5,1 Z M3.5,2 L2.5,2 L2.5,14 L13.5,14 L13.5,2 L12.5,2 C12.5,3.1045695 11.6045695,4 10.5,4 L5.5,4 C4.3954305,4 3.5,3.1045695 3.5,2 Z M8.5,10.5 C8.77614237,10.5 9,10.7238576 9,11 C9,11.2761424 8.77614237,11.5 8.5,11.5 L5.5,11.5 C5.22385763,11.5 5,11.2761424 5,11 C5,10.7238576 5.22385763,10.5 5.5,10.5 L8.5,10.5 Z M9.5,8.5 C9.77614237,8.5 10,8.72385763 10,9 C10,9.27614237 9.77614237,9.5 9.5,9.5 L5.5,9.5 C5.22385763,9.5 5,9.27614237 5,9 C5,8.72385763 5.22385763,8.5 5.5,8.5 L9.5,8.5 Z M11,6.5 C11.2761424,6.5 11.5,6.72385763 11.5,7 C11.5,7.27614237 11.2761424,7.5 11,7.5 L5.5,7.5 C5.22385763,7.5 5,7.27614237 5,7 C5,6.72385763 5.22385763,6.5 5.5,6.5 L11,6.5 Z M10,1 C10.2761424,1 10.5,1.22385763 10.5,1.5 C10.5,1.77614237 10.2761424,2 10,2 L6,2 C5.72385763,2 5.5,1.77614237 5.5,1.5 C5.5,1.22385763 5.72385763,1 6,1 L10,1 Z" id="形状结合" fill="#000000"></path>
    </g>
</svg>