<?xml version="1.0" encoding="UTF-8"?>
<svg width="16px" height="16px" viewBox="0 0 16 16" version="1.1" xmlns="http://www.w3.org/2000/svg" xmlns:xlink="http://www.w3.org/1999/xlink">
    <!-- Generator: Sketch 61.2 (89653) - https://sketch.com -->
    <title>icon/申报业务管理</title>
    <desc>Created with Sketch.</desc>
    <g id="icon/申报业务管理" stroke="none" stroke-width="1" fill="none" fill-rule="evenodd">
        <path d="M8,-0.0717967697 L14.9282032,3.92820323 L14.9282032,11.9282032 L8,15.9282032 L1.07179677,11.9282032 L1.07179677,3.92820323 L8,-0.0717967697 Z M8.00008096,1.081937 L2.07127105,4.504937 L2.07223211,11.3506016 L7.99977105,14.7734002 L13.928581,11.3504002 L13.9281199,4.50560162 L8.00008096,1.081937 Z M11.9906446,5.21994403 L12.0425588,5.29375077 C12.1652888,5.50632527 12.1141846,5.77156062 11.9333529,5.92484925 L11.8595461,5.97676348 L8.61192921,7.85266729 L8.61237639,11.9771968 C8.61237639,12.2533392 8.38851876,12.4771968 8.11237639,12.4771968 C7.83623401,12.4771968 7.61237639,12.2533392 7.61237639,11.9771968 L7.61192921,7.81366729 L4.4330127,5.97676348 C4.19386639,5.83869229 4.11192881,5.53289709 4.25,5.29375077 C4.38807119,5.05460446 4.69386639,4.97266688 4.9330127,5.11073807 L8.14592921,6.96566729 L11.3595461,5.11073807 C11.5721206,4.98800813 11.837356,5.03911227 11.9906446,5.21994403 Z" id="形状结合" fill="#000000"></path>
    </g>
</svg>