<?xml version="1.0" encoding="UTF-8"?>
<svg width="16px" height="16px" viewBox="0 0 16 16" version="1.1" xmlns="http://www.w3.org/2000/svg" xmlns:xlink="http://www.w3.org/1999/xlink">
    <!-- Generator: Sketch 61.2 (89653) - https://sketch.com -->
    <title>icon/申报项目分类管理</title>
    <desc>Created with Sketch.</desc>
    <g id="icon/申报项目分类管理" stroke="none" stroke-width="1" fill="none" fill-rule="evenodd">
        <path d="M6.5,8.5 C7.05228475,8.5 7.5,8.94771525 7.5,9.5 L7.5,14 C7.5,14.5522847 7.05228475,15 6.5,15 L2,15 C1.44771525,15 1,14.5522847 1,14 L1,9.5 C1,8.94771525 1.44771525,8.5 2,8.5 L6.5,8.5 Z M10.5,13.25 C10.7761424,13.25 11,13.4738576 11,13.75 C11,14.0261424 10.7761424,14.25 10.5,14.25 L9,14.25 C8.72385763,14.25 8.5,14.0261424 8.5,13.75 C8.5,13.4738576 8.72385763,13.25 9,13.25 L10.5,13.25 Z M6.5,9.5 L2,9.5 L2,14 L6.5,14 L6.5,9.5 Z M12.5,11.25 C12.7761424,11.25 13,11.4738576 13,11.75 C13,12.0261424 12.7761424,12.25 12.5,12.25 L9,12.25 C8.72385763,12.25 8.5,12.0261424 8.5,11.75 C8.5,11.4738576 8.72385763,11.25 9,11.25 L12.5,11.25 Z M14.5,9.25 C14.7761424,9.25 15,9.47385763 15,9.75 C15,10.0261424 14.7761424,10.25 14.5,10.25 L9,10.25 C8.72385763,10.25 8.5,10.0261424 8.5,9.75 C8.5,9.47385763 8.72385763,9.25 9,9.25 L14.5,9.25 Z M6.5,1 C7.05228475,1 7.5,1.44771525 7.5,2 L7.5,6.5 C7.5,7.05228475 7.05228475,7.5 6.5,7.5 L2,7.5 C1.44771525,7.5 1,7.05228475 1,6.5 L1,2 C1,1.44771525 1.44771525,1 2,1 L6.5,1 Z M14,1 C14.5522847,1 15,1.44771525 15,2 L15,6.5 C15,7.05228475 14.5522847,7.5 14,7.5 L9.5,7.5 C8.94771525,7.5 8.5,7.05228475 8.5,6.5 L8.5,2 C8.5,1.44771525 8.94771525,1 9.5,1 L14,1 Z M6.5,2 L2,2 L2,6.5 L6.5,6.5 L6.5,2 Z M14,2 L9.5,2 L9.5,6.5 L14,6.5 L14,2 Z" id="形状结合" fill="#000000"></path>
    </g>
</svg>