<?xml version="1.0" encoding="UTF-8"?>
<svg width="16px" height="16px" viewBox="0 0 16 16" version="1.1" xmlns="http://www.w3.org/2000/svg" xmlns:xlink="http://www.w3.org/1999/xlink">
    <!-- Generator: Sketch 61.2 (89653) - https://sketch.com -->
    <title>icon/监管审计</title>
    <desc>Created with Sketch.</desc>
    <defs>
        <rect id="path-1" x="0" y="0" width="16" height="16"></rect>
    </defs>
    <g id="icon/监管审计" stroke="none" stroke-width="1" fill="none" fill-rule="evenodd">
        <g id="编组-5">
            <mask id="mask-2" fill="white">
                <use xlink:href="#path-1"></use>
            </mask>
            <use id="蒙版" fill="#D8D8D8" opacity="0" xlink:href="#path-1"></use>
            <g mask="url(#mask-2)">
                <g transform="translate(0.500000, 0.500000)">
                    <g id="编组-4" stroke-width="1" fill="none">
                        <g id="编组-3" transform="translate(10.853553, 11.853553) rotate(-45.000000) translate(-10.853553, -11.853553) translate(7.853553, 7.353553)" fill="#000000">
                            <path d="M3,0 C4.65685425,0 6,1.34314575 6,3 C6,4.65685425 4.65685425,6 3,6 C1.34314575,6 0,4.65685425 0,3 C0,1.34314575 1.34314575,0 3,0 Z M3,1 C1.8954305,1 1,1.8954305 1,3 C1,4.1045695 1.8954305,5 3,5 C4.1045695,5 5,4.1045695 5,3 C5,1.8954305 4.1045695,1 3,1 Z" id="椭圆形" fill-rule="nonzero"></path>
                            <rect id="矩形" x="3" y="5" width="1" height="4" rx="0.5"></rect>
                        </g>
                        <path d="M12,0.5 C12.7722245,0.5 13.4195697,1.05892592 13.4930559,1.78964326 L13.5,1.92857143 L13.5,7.04610971 C13.5,7.32225209 13.2761424,7.54610971 13,7.54610971 C12.7238576,7.54610971 12.5,7.32225209 12.5,7.04610971 L12.5,1.92857143 L12.5,1.92857143 C12.5,1.72583791 12.3293973,1.5448952 12.0919665,1.50718859 L12,1.5 L2,1.5 C1.74748356,1.5 1.54882351,1.65841676 1.50779432,1.853805 L1.5,1.92857143 L1.5,13.0714286 C1.5,13.2741621 1.67060267,13.4551048 1.90803354,13.4928114 L2,13.5 L6.50886057,13.5 C6.78500295,13.5 7.00886057,13.7238576 7.00886057,14 C7.00886057,14.2761424 6.78500295,14.5 6.50886057,14.5 L2,14.5 L2,14.5 C1.22777553,14.5 0.580430339,13.9410741 0.506944138,13.2103567 L0.5,13.0714286 L0.5,1.92857143 C0.5,1.1778924 1.10192022,0.574808893 1.85678095,0.506455398 L2,0.5 L12,0.5 Z" id="路径" fill="#000000" fill-rule="nonzero"></path>
                    </g>
                    <rect id="矩形" fill="#000000" x="3.5" y="3.5" width="6" height="1" rx="0.5"></rect>
                    <rect id="矩形备份-12" fill="#000000" x="3.5" y="5.5" width="6" height="1" rx="0.5"></rect>
                    <rect id="矩形备份-13" fill="#000000" x="3.5" y="7.5" width="4" height="1" rx="0.5"></rect>
                </g>
            </g>
        </g>
    </g>
</svg>