<?xml version="1.0" encoding="UTF-8"?>
<svg width="16px" height="16px" viewBox="0 0 16 16" version="1.1" xmlns="http://www.w3.org/2000/svg" xmlns:xlink="http://www.w3.org/1999/xlink">
    <!-- Generator: Sketch 61.2 (89653) - https://sketch.com -->
    <title>icon/设置</title>
    <desc>Created with Sketch.</desc>
    <g id="icon/设置" stroke="none" stroke-width="1" fill="none" fill-rule="evenodd">
        <g id="编组-6">
            <rect id="矩形" stroke="#979797" fill="#D8D8D8" opacity="0" x="0.5" y="0.5" width="15" height="15"></rect>
            <g id="编组" transform="translate(1.000000, 1.000000)" fill="#000000" fill-rule="nonzero">
                <path d="M13.8003577,9.26933358 L12.7218938,8.34689383 C12.8246649,7.71606215 12.8246649,7.07275562 12.7218938,6.44192395 L13.8003577,5.51948419 C13.9669886,5.37684205 14.0278687,5.14591737 13.9532191,4.93966491 L13.9384601,4.89749623 C13.6415771,4.06724754 13.196914,3.29756962 12.6259601,2.62565889 L12.596442,2.59086973 C12.454408,2.42408555 12.2242966,2.36205188 12.017677,2.43484563 L10.6788215,2.91029744 C10.1870598,2.50611148 9.63216256,2.18556747 9.03635166,1.96150226 L8.77806852,0.561502259 C8.73813556,0.345953981 8.56896341,0.177621391 8.35321913,0.138761295 L8.30894202,0.13032756 C7.44256955,-0.0245868746 6.55558557,-0.0245868746 5.6892131,0.13032756 L5.64493599,0.138761295 C5.42919171,0.177621391 5.26001956,0.345953981 5.2200866,0.561502259 L4.95969503,1.96888178 C4.36817812,2.19265758 3.81727235,2.51173423 3.32882154,2.91346009 L1.97942395,2.43484563 C1.77313541,2.36190884 1.54323596,2.42399847 1.4017131,2.59086973 L1.37219503,2.62565889 C0.801941938,3.29806348 0.357355908,4.06760797 0.0596950301,4.89749623 L0.044935994,4.93966491 C-0.0290821531,5.14594521 0.0317021874,5.37650651 0.19779744,5.51948419 L1.28996611,6.45246611 C1.18757785,7.07519316 1.18757785,7.71046196 1.28996611,8.33318901 L0.19779744,9.26511672 C0.0311665165,9.40775886 -0.0297136247,9.63868353 0.044935994,9.84493599 L0.0596950301,9.88815889 C0.35652406,10.7185269 0.800794518,11.4885004 1.37114081,12.1610505 L1.40065889,12.1958396 C1.5425182,12.36218 1.77205772,12.4241724 1.97836973,12.3518637 L3.32776732,11.872195 C3.81572825,12.274892 4.36674132,12.594387 4.95864081,12.8178276 L5.21903238,14.2252071 C5.25896534,14.4407554 5.4281375,14.6090879 5.64388178,14.647948 L5.68815889,14.6563818 C6.55445759,14.8121255 7.44158909,14.8121255 8.3078878,14.6563818 L8.35216491,14.647948 C8.56790919,14.6090879 8.73708134,14.4407554 8.77701431,14.2252071 L9.03529744,12.8241529 C9.63141418,12.6007348 10.1864134,12.2801319 10.6777673,11.8753577 L12.0166227,12.3518637 C12.2232182,12.4252885 12.4536919,12.3631571 12.5953878,12.1958396 L12.6249059,12.1610505 C13.195159,11.4886459 13.639745,10.7191014 13.9374059,9.8892131 L13.9521649,9.84704443 C14.0259823,9.64173596 13.9651287,9.41217126 13.7993035,9.2703878 L13.8003577,9.26933358 Z M11.5517131,6.63695407 C11.6346585,7.13957914 11.6346585,7.65240128 11.5517131,8.15502636 L11.4431288,8.81602033 L12.6733998,9.86812877 C12.4878577,10.2982492 12.2517131,10.7030685 11.9723456,11.0804782 L10.4437312,10.5386107 L9.92611069,10.9634601 C9.5328878,11.2871047 9.09327937,11.5401167 8.61888178,11.7182794 L7.99267696,11.9533697 L7.69749623,13.5515625 C7.23364081,13.6042733 6.76135166,13.6042733 6.29749623,13.5515625 L6.00231551,11.9502071 L5.38032756,11.7119541 C4.90990447,11.5335228 4.47187863,11.2792542 4.08364081,10.9592432 L3.56707455,10.5322854 L2.02791792,11.0794239 C1.74900141,10.7030188 1.51347361,10.2963267 1.32580949,9.86707455 L2.56978539,8.80442395 L2.46225527,8.1455384 C2.37919516,7.64929118 2.37919516,7.14268924 2.46225527,6.64644202 L2.56978539,5.98755648 L1.32580949,4.92490587 C1.51240587,4.49478539 1.74749623,4.08996611 2.02791792,3.71255648 L3.56707455,4.25969503 L4.08364081,3.8327372 C4.47370105,3.51225527 4.91014684,3.25818901 5.38032756,3.08002636 L6.00442395,2.84493599 L6.29960467,1.24358057 C6.76135166,1.19086973 7.23469503,1.19086973 7.69855045,1.24358057 L7.99373117,2.84177334 L8.62099021,3.0768637 C9.09433358,3.25502636 9.53394202,3.50909262 9.92821913,3.83168298 L10.4447854,4.25653238 L11.9733998,3.71466491 C12.2538215,4.09207455 12.4878577,4.49900226 12.6755083,4.92701431 L11.4452372,5.97912274 L11.5517131,6.63695407 L11.5517131,6.63695407 Z M7.00065889,4.33243599 C5.39953216,4.33243599 4.1015625,5.63040566 4.1015625,7.23153238 C4.1015625,8.8326591 5.39953216,10.1306288 7.00065889,10.1306288 C8.60178561,10.1306288 9.89975527,8.8326591 9.89975527,7.23153238 C9.89975527,5.63040566 8.60178561,4.33243599 7.00065889,4.33243599 Z M8.30577937,8.53454443 C7.95577937,8.88243599 7.49403238,9.07535768 7.00065889,9.07535768 C6.50833961,9.07535768 6.0455384,8.88243599 5.69659262,8.53454443 C5.34996365,8.18914611 5.15532631,7.71981592 5.15577858,7.23047816 C5.15577858,6.73815889 5.34870105,6.27430346 5.69659262,5.92535768 C6.04448419,5.5764119 6.50833961,5.38559864 7.00065889,5.38559864 C7.49297816,5.38559864 7.95577937,5.5764119 8.30577937,5.92535768 C8.65367093,6.27535768 8.8455384,6.73710467 8.8455384,7.23047816 C8.8455384,7.72279744 8.65261672,8.18559864 8.30577937,8.53454443 Z" id="形状"></path>
            </g>
        </g>
    </g>
</svg>