<?xml version="1.0" encoding="UTF-8"?>
<svg width="16px" height="16px" viewBox="0 0 16 16" version="1.1" xmlns="http://www.w3.org/2000/svg" xmlns:xlink="http://www.w3.org/1999/xlink">
    <!-- Generator: Sketch 61.2 (89653) - https://sketch.com -->
    <title>icon/部门管理</title>
    <desc>Created with Sketch.</desc>
    <g id="icon/部门管理" stroke="none" stroke-width="1" fill="none" fill-rule="evenodd">
        <g id="编组-8">
            <rect id="矩形备份-2" stroke="#979797" fill="#D8D8D8" opacity="0" x="0.5" y="0.5" width="15" height="15"></rect>
            <g id="编组" transform="translate(1.000000, 1.000000)" fill="#000000" fill-rule="nonzero">
                <path d="M10.53125,8.53125 L10.53125,7.578125 C10.53125,7.50908941 10.4752856,7.453125 10.40625,7.453125 L3.59375,7.453125 C3.52471441,7.453125 3.46875,7.50908941 3.46875,7.578125 L3.46875,8.53125 L4.96875,8.53125 C5.24489063,8.53125 5.46875,8.75510937 5.46875,9.03125 L5.46875,13.5 C5.46875,13.7761406 5.24489063,14 4.96875,14 L0.5,14 C0.223859375,14 0,13.7761406 0,13.5 L0,9.03125 C0,8.75510937 0.223859375,8.53125 0.5,8.53125 L2.46875,8.53125 L2.46875,6.953125 C2.46875,6.67698437 2.69260937,6.453125 2.96875,6.453125 L6.5,6.453125 L6.5,5.46875 L4.765625,5.46875 C4.48948437,5.46875 4.265625,5.24489063 4.265625,4.96875 L4.265625,0.5 C4.265625,0.223859375 4.48948437,0 4.765625,0 L9.234375,0 C9.51051563,0 9.734375,0.223859375 9.734375,0.5 L9.734375,4.96875 C9.734375,5.24489063 9.51051563,5.46875 9.234375,5.46875 L7.5,5.46875 L7.5,6.453125 L11.03125,6.453125 C11.3073906,6.453125 11.53125,6.67698437 11.53125,6.953125 L11.53125,8.53125 L13.5,8.53125 C13.7761406,8.53125 14,8.75510937 14,9.03125 L14,13.5 C14,13.7761406 13.7761406,14 13.5,14 L9.03125,14 C8.75510937,14 8.53125,13.7761406 8.53125,13.5 L8.53125,9.03125 C8.53125,8.75510937 8.75510937,8.53125 9.03125,8.53125 L10.53125,8.53125 Z M5.390625,1 C5.32158941,1 5.265625,1.05596441 5.265625,1.125 L5.265625,4.34375 C5.265625,4.41278559 5.32158941,4.46875 5.390625,4.46875 L8.609375,4.46875 C8.67841059,4.46875 8.734375,4.41278559 8.734375,4.34375 L8.734375,1.125 C8.734375,1.05596441 8.67841059,1 8.609375,1 L5.390625,1 Z M1.125,9.53125 C1.05596441,9.53125 1,9.58721441 1,9.65625 L1,12.875 C1,12.9440356 1.05596441,13 1.125,13 L4.34375,13 C4.41278559,13 4.46875,12.9440356 4.46875,12.875 L4.46875,9.65625 C4.46875,9.58721441 4.41278559,9.53125 4.34375,9.53125 L1.125,9.53125 Z M9.65625,9.53125 C9.58721441,9.53125 9.53125,9.58721441 9.53125,9.65625 L9.53125,12.875 C9.53125,12.9440356 9.58721441,13 9.65625,13 L12.875,13 C12.9440356,13 13,12.9440356 13,12.875 L13,9.65625 C13,9.58721441 12.9440356,9.53125 12.875,9.53125 L9.65625,9.53125 Z" id="形状"></path>
            </g>
        </g>
    </g>
</svg>